<svg xmlns="http://www.w3.org/2000/svg" viewBox="0 0 1400.42 880.11"><defs><style>.cls-1{fill:#ffffff44;}</style></defs><g id="Layer_2" data-name="Layer 2"><g id="Layer_1-2" data-name="Layer 1"><path class="cls-1" d="M13.88,234.84h0a.28.28,0,0,1-.55,0h0A12.64,12.64,0,0,0,2,223.52H2A.28.28,0,0,1,2,223H2a12.66,12.66,0,0,0,11.33-11.33h0a.28.28,0,0,1,.55,0h0A12.66,12.66,0,0,0,25.21,223h0a.28.28,0,0,1,0,.56h0A12.64,12.64,0,0,0,13.88,234.84Z"/><path class="cls-1" d="M13.52,77h0a.31.31,0,0,1-.62,0h0A14.09,14.09,0,0,0,.28,64.41h0a.31.31,0,0,1,0-.62h0A14.1,14.1,0,0,0,12.9,51.17h0a.31.31,0,0,1,.62,0h0A14.09,14.09,0,0,0,26.14,63.79h0a.31.31,0,0,1,0,.62h0A14.08,14.08,0,0,0,13.52,77Z"/><path class="cls-1" d="M445.85,315.9h0a.31.31,0,0,1-.62,0h0a14.26,14.26,0,0,0-12.77-12.77h0a.32.32,0,0,1,0-.63h0a14.26,14.26,0,0,0,12.77-12.77h0a.31.31,0,0,1,.62,0h0a14.26,14.26,0,0,0,12.77,12.77h0a.32.32,0,0,1,0,.63h0A14.26,14.26,0,0,0,445.85,315.9Z"/><path class="cls-1" d="M375.05,362.05h0a.24.24,0,0,1-.48,0h0a11,11,0,0,0-9.84-9.84h0a.24.24,0,0,1,0-.48h0a11,11,0,0,0,9.84-9.84h0a.24.24,0,0,1,.48,0h0a11,11,0,0,0,9.84,9.84h0a.24.24,0,0,1,0,.48h0A11,11,0,0,0,375.05,362.05Z"/><path class="cls-1" d="M626.42,353.31h0a.29.29,0,0,1-.58,0h0A13.26,13.26,0,0,0,614,341.43h0a.3.3,0,0,1,0-.59h0A13.26,13.26,0,0,0,625.84,329h0a.29.29,0,0,1,.58,0h0a13.27,13.27,0,0,0,11.89,11.88h0a.3.3,0,0,1,0,.59h0A13.26,13.26,0,0,0,626.42,353.31Z"/><path class="cls-1" d="M738.4,341.57h0a.29.29,0,0,1-.57,0h0a13.13,13.13,0,0,0-11.77-11.76h0a.29.29,0,0,1,0-.58h0a13.13,13.13,0,0,0,11.77-11.76h0a.29.29,0,0,1,.57,0h0a13.13,13.13,0,0,0,11.77,11.76h0a.29.29,0,0,1,0,.58h0A13.13,13.13,0,0,0,738.4,341.57Z"/><path class="cls-1" d="M720,395.67h0a.24.24,0,0,1-.48,0h0a10.88,10.88,0,0,0-9.74-9.75h0a.24.24,0,0,1,0-.48h0a10.87,10.87,0,0,0,9.74-9.74h0a.24.24,0,0,1,.48,0h0a10.88,10.88,0,0,0,9.75,9.74h0a.24.24,0,0,1,0,.48h0A10.89,10.89,0,0,0,720,395.67Z"/><path class="cls-1" d="M537,518.24h0a.27.27,0,0,1-.54,0h0a12.42,12.42,0,0,0-11.12-11.11h0a.27.27,0,0,1,0-.54h0a12.42,12.42,0,0,0,11.12-11.12h0a.27.27,0,0,1,.54,0h0a12.42,12.42,0,0,0,11.11,11.12h0a.27.27,0,0,1,0,.54h0A12.42,12.42,0,0,0,537,518.24Z"/><path class="cls-1" d="M191.7,398.92h0a.2.2,0,0,1-.39,0h0a9,9,0,0,0-8.08-8.08h0a.2.2,0,0,1,0-.39h0a9,9,0,0,0,8.08-8.08h0a.2.2,0,0,1,.39,0h0a9,9,0,0,0,8.08,8.08h0a.2.2,0,0,1,0,.39h0A9,9,0,0,0,191.7,398.92Z"/><path class="cls-1" d="M115.76,539.79h0a.25.25,0,0,1-.49,0h0a11.31,11.31,0,0,0-10.12-10.13h0a.25.25,0,0,1,0-.49h0a11.31,11.31,0,0,0,10.12-10.12h0a.25.25,0,0,1,.49,0h0a11.31,11.31,0,0,0,10.13,10.12h0a.25.25,0,0,1,0,.49h0A11.31,11.31,0,0,0,115.76,539.79Z"/><path class="cls-1" d="M269.73,347.64h0a.28.28,0,0,1-.55,0h0A12.49,12.49,0,0,0,258,336.46h0a.28.28,0,0,1,0-.55h0a12.48,12.48,0,0,0,11.18-11.18h0a.28.28,0,0,1,.55,0h0a12.47,12.47,0,0,0,11.18,11.18h0a.28.28,0,0,1,0,.55h0A12.48,12.48,0,0,0,269.73,347.64Z"/><path class="cls-1" d="M524.81,175.37h0a.3.3,0,0,1-.59,0h0a13.38,13.38,0,0,0-12-12h0a.3.3,0,0,1,0-.59h0a13.38,13.38,0,0,0,12-12h0a.3.3,0,0,1,.59,0h0a13.39,13.39,0,0,0,12,12h0a.3.3,0,0,1,0,.59h0A13.39,13.39,0,0,0,524.81,175.37Z"/><path class="cls-1" d="M684,144h0a.24.24,0,0,1-.47,0h0a10.82,10.82,0,0,0-9.7-9.69h0a.24.24,0,0,1,0-.48h0a10.83,10.83,0,0,0,9.7-9.69h0a.24.24,0,0,1,.47,0h0a10.82,10.82,0,0,0,9.69,9.69h0a.24.24,0,0,1,0,.48h0A10.81,10.81,0,0,0,684,144Z"/><path class="cls-1" d="M746.7,124.73h0a.15.15,0,0,1-.3,0h0a6.77,6.77,0,0,0-6.06-6.06h0a.15.15,0,0,1,0-.29h0a6.77,6.77,0,0,0,6.06-6.06h0a.15.15,0,0,1,.3,0h0a6.77,6.77,0,0,0,6.06,6.06h0a.15.15,0,0,1,0,.29h0A6.77,6.77,0,0,0,746.7,124.73Z"/><path class="cls-1" d="M848,181h0a.26.26,0,0,1-.51,0h0a11.74,11.74,0,0,0-10.5-10.5h0a.26.26,0,0,1,0-.51h0a11.74,11.74,0,0,0,10.5-10.5h0a.26.26,0,0,1,.51,0h0A11.73,11.73,0,0,0,858.45,170h0a.26.26,0,0,1,0,.51h0A11.73,11.73,0,0,0,848,181Z"/><path class="cls-1" d="M826.76,165.61h0a.27.27,0,0,1-.54,0h0a12.36,12.36,0,0,0-11.07-11.07h0a.27.27,0,0,1,0-.54h0a12.37,12.37,0,0,0,11.07-11.08h0a.27.27,0,0,1,.54,0h0A12.38,12.38,0,0,0,837.84,154h0a.27.27,0,0,1,0,.54h0A12.37,12.37,0,0,0,826.76,165.61Z"/><path class="cls-1" d="M232.6,593.07h0a.27.27,0,0,1-.54,0h0A12.47,12.47,0,0,0,220.9,581.9h0a.27.27,0,0,1,0-.54h0a12.46,12.46,0,0,0,11.16-11.16h0a.27.27,0,0,1,.54,0h0a12.47,12.47,0,0,0,11.17,11.16h0a.27.27,0,0,1,0,.54h0A12.47,12.47,0,0,0,232.6,593.07Z"/><path class="cls-1" d="M627.1,603.52h0a.28.28,0,0,1-.55,0h0a12.59,12.59,0,0,0-11.29-11.28h0a.28.28,0,0,1,0-.56h0a12.59,12.59,0,0,0,11.29-11.28h0a.28.28,0,0,1,.55,0h0a12.58,12.58,0,0,0,11.28,11.28h0a.28.28,0,0,1,0,.56h0A12.58,12.58,0,0,0,627.1,603.52Z"/><path class="cls-1" d="M848.91,593h0a.28.28,0,0,1-.56,0h0A12.63,12.63,0,0,0,837,581.72h0a.28.28,0,0,1,0-.56h0a12.63,12.63,0,0,0,11.31-11.31h0a.28.28,0,0,1,.56,0h0a12.63,12.63,0,0,0,11.31,11.31h0a.28.28,0,0,1,0,.56h0A12.62,12.62,0,0,0,848.91,593Z"/><path class="cls-1" d="M887.41,586.15h0a.27.27,0,0,1-.54,0h0a12.32,12.32,0,0,0-11-11h0a.28.28,0,0,1,0-.55h0a12.32,12.32,0,0,0,11-11h0a.27.27,0,0,1,.54,0h0a12.32,12.32,0,0,0,11,11h0a.28.28,0,0,1,0,.55h0A12.32,12.32,0,0,0,887.41,586.15Z"/><path class="cls-1" d="M22.52,416.18h0a.25.25,0,0,1-.49,0h0A11.33,11.33,0,0,0,11.89,406h0a.25.25,0,0,1,0-.5h0A11.32,11.32,0,0,0,22,395.4h0a.25.25,0,0,1,.49,0h0a11.32,11.32,0,0,0,10.14,10.14h0a.25.25,0,0,1,0,.5h0A11.33,11.33,0,0,0,22.52,416.18Z"/><path class="cls-1" d="M103.54,289.9h0a.28.28,0,0,1-.56,0h0a12.56,12.56,0,0,0-11.25-11.26h0a.28.28,0,0,1,0-.55h0A12.56,12.56,0,0,0,103,266.83h0a.28.28,0,0,1,.56,0h0a12.56,12.56,0,0,0,11.25,11.26h0a.28.28,0,0,1,0,.55h0A12.56,12.56,0,0,0,103.54,289.9Z"/><path class="cls-1" d="M331.75,260.83h0a.32.32,0,0,1-.64,0h0a14.48,14.48,0,0,0-13-13h0a.32.32,0,0,1,0-.64h0a14.47,14.47,0,0,0,13-13h0a.32.32,0,0,1,.64,0h0a14.48,14.48,0,0,0,13,13h0a.32.32,0,0,1,0,.64h0A14.49,14.49,0,0,0,331.75,260.83Z"/><path class="cls-1" d="M331.16,113.25h0a.27.27,0,0,1-.54,0h0a12.4,12.4,0,0,0-11.1-11.1h0a.27.27,0,0,1,0-.54h0a12.4,12.4,0,0,0,11.1-11.1h0a.27.27,0,0,1,.54,0h0a12.4,12.4,0,0,0,11.1,11.1h0a.27.27,0,0,1,0,.54h0A12.4,12.4,0,0,0,331.16,113.25Z"/><path class="cls-1" d="M304.53,27.35h0a.25.25,0,0,1-.5,0h0a11.3,11.3,0,0,0-10.12-10.12h0a.25.25,0,0,1,0-.49h0A11.3,11.3,0,0,0,304,6.61h0a.25.25,0,0,1,.5,0h0a11.3,11.3,0,0,0,10.12,10.13h0a.25.25,0,0,1,0,.49h0A11.3,11.3,0,0,0,304.53,27.35Z"/><circle class="cls-1" cx="518" cy="35.33" r="7.49"/><circle class="cls-1" cx="88.92" cy="74.69" r="9.4"/><circle class="cls-1" cx="190.42" cy="12.2" r="12.2"/><circle class="cls-1" cx="312.6" cy="26.81" r="5.69"/><circle class="cls-1" cx="194.97" cy="124.43" r="7.04"/><circle class="cls-1" cx="186.71" cy="448.75" r="5.39"/><circle class="cls-1" cx="395.97" cy="497.15" r="8.19"/><circle class="cls-1" cx="796.74" cy="335.95" r="5.03"/><circle class="cls-1" cx="788.91" cy="160.09" r="6.46"/><circle class="cls-1" cx="659.11" cy="6.47" r="5.55"/><circle class="cls-1" cx="136.87" cy="223.63" r="8.63"/><circle class="cls-1" cx="67.29" cy="341.64" r="6.19"/><circle class="cls-1" cx="562.2" cy="302.05" r="7.22"/><circle class="cls-1" cx="575.96" cy="443.42" r="7.99"/><circle class="cls-1" cx="771.89" cy="446.45" r="5.33"/><circle class="cls-1" cx="889.41" cy="393.68" r="7.81"/><circle class="cls-1" cx="882.01" cy="280.9" r="6.83"/><circle class="cls-1" cx="874.71" cy="72.79" r="7.38"/><circle class="cls-1" cx="753.07" cy="214.93" r="8.44"/><circle class="cls-1" cx="20.8" cy="592.43" r="7.38"/><circle class="cls-1" cx="520.77" cy="440.98" r="8.26"/><circle class="cls-1" cx="288.07" cy="468.69" r="7.3"/><circle class="cls-1" cx="269.81" cy="341.4" r="6.04"/><path class="cls-1" d="M1141.86,839.91h0a.28.28,0,0,1,0,.55h0a12.64,12.64,0,0,0-11.32,11.33h0a.28.28,0,0,1-.56,0h0a12.66,12.66,0,0,0-11.33-11.33h0a.28.28,0,0,1,0-.55h0A12.66,12.66,0,0,0,1130,828.58h0a.28.28,0,0,1,.56,0h0A12.64,12.64,0,0,0,1141.86,839.91Z"/><path class="cls-1" d="M1122.05,776.27h0a.31.31,0,0,1,0,.62h0a14.09,14.09,0,0,0-12.62,12.62h0a.31.31,0,0,1-.62,0h0a14.09,14.09,0,0,0-12.62-12.62h0a.31.31,0,0,1,0-.62h0a14.09,14.09,0,0,0,12.62-12.62h0a.31.31,0,0,1,.62,0h0A14.09,14.09,0,0,0,1122.05,776.27Z"/><path class="cls-1" d="M1299.92,364.93h0a.32.32,0,0,1,0,.63h0a14.25,14.25,0,0,0-12.77,12.77h0a.32.32,0,0,1-.63,0h0a14.26,14.26,0,0,0-12.77-12.77h0a.32.32,0,0,1,0-.63h0a14.25,14.25,0,0,0,12.77-12.77h0a.32.32,0,0,1,.63,0h0A14.24,14.24,0,0,0,1299.92,364.93Z"/><path class="cls-1" d="M1346.07,435.74h0a.24.24,0,0,1,0,.48h0a11,11,0,0,0-9.84,9.84h0a.24.24,0,0,1-.48,0h0a11,11,0,0,0-9.84-9.84h0a.24.24,0,0,1,0-.48h0a11,11,0,0,0,9.84-9.84h0a.24.24,0,0,1,.48,0h0A11,11,0,0,0,1346.07,435.74Z"/><path class="cls-1" d="M1337.33,184.36h0a.3.3,0,0,1,0,.59h0a13.25,13.25,0,0,0-11.88,11.88h0a.3.3,0,0,1-.59,0h0A13.26,13.26,0,0,0,1313,185h0a.3.3,0,0,1,0-.59h0a13.25,13.25,0,0,0,11.88-11.88h0a.3.3,0,0,1,.59,0h0A13.24,13.24,0,0,0,1337.33,184.36Z"/><path class="cls-1" d="M1325.59,72.39h0a.29.29,0,0,1,0,.57h0a13.13,13.13,0,0,0-11.76,11.76h0a.29.29,0,0,1-.58,0h0A13.13,13.13,0,0,0,1301.49,73h0a.29.29,0,0,1,0-.57h0a13.15,13.15,0,0,0,11.76-11.77h0a.29.29,0,0,1,.58,0h0A13.15,13.15,0,0,0,1325.59,72.39Z"/><path class="cls-1" d="M1379.69,90.78h0a.24.24,0,0,1,0,.47h0a10.9,10.9,0,0,0-9.75,9.75h0a.24.24,0,0,1-.48,0h0a10.89,10.89,0,0,0-9.74-9.75h0a.24.24,0,0,1,0-.47h0a10.89,10.89,0,0,0,9.74-9.75h0a.24.24,0,0,1,.48,0h0A10.9,10.9,0,0,0,1379.69,90.78Z"/><path class="cls-1" d="M1382.94,619.08h0a.2.2,0,0,1,0,.4h0a9,9,0,0,0-8.08,8.08h0a.2.2,0,0,1-.39,0h0a9,9,0,0,0-8.08-8.08h0a.2.2,0,0,1,0-.4h0a9,9,0,0,0,8.08-8.08h0a.2.2,0,0,1,.39,0h0A9,9,0,0,0,1382.94,619.08Z"/><path class="cls-1" d="M1331.66,541.06h0a.28.28,0,0,1,0,.55h0a12.49,12.49,0,0,0-11.18,11.18h0a.28.28,0,0,1-.55,0h0a12.48,12.48,0,0,0-11.18-11.18h0a.28.28,0,0,1,0-.55h0a12.48,12.48,0,0,0,11.18-11.18h0a.28.28,0,0,1,.55,0h0A12.49,12.49,0,0,0,1331.66,541.06Z"/><path class="cls-1" d="M1159.39,286h0a.29.29,0,0,1,0,.58h0a13.4,13.4,0,0,0-12,12h0a.3.3,0,0,1-.59,0h0a13.4,13.4,0,0,0-12-12h0a.29.29,0,0,1,0-.58h0a13.4,13.4,0,0,0,12-12h0a.3.3,0,0,1,.59,0h0A13.4,13.4,0,0,0,1159.39,286Z"/><path class="cls-1" d="M1128,126.82h0a.24.24,0,0,1,0,.47h0a10.82,10.82,0,0,0-9.69,9.7h0a.24.24,0,0,1-.48,0h0a10.83,10.83,0,0,0-9.69-9.7h0a.24.24,0,0,1,0-.47h0a10.82,10.82,0,0,0,9.69-9.7h0a.24.24,0,0,1,.48,0h0A10.82,10.82,0,0,0,1128,126.82Z"/><path class="cls-1" d="M1108.75,64.09h0a.15.15,0,0,1,0,.3h0a6.77,6.77,0,0,0-6.06,6.06h0a.15.15,0,0,1-.29,0h0a6.77,6.77,0,0,0-6.06-6.06h0a.15.15,0,0,1,0-.3h0A6.77,6.77,0,0,0,1102.4,58h0a.15.15,0,0,1,.29,0h0A6.77,6.77,0,0,0,1108.75,64.09Z"/><path class="cls-1" d="M1042.63,12h0a.27.27,0,0,1,0,.54h0a12.35,12.35,0,0,0-11.07,11.07h0a.27.27,0,0,1-.54,0h0a12.36,12.36,0,0,0-11.08-11.07h0a.27.27,0,0,1,0-.54h0A12.38,12.38,0,0,0,1031,1h0a.27.27,0,0,1,.54,0h0A12.37,12.37,0,0,0,1042.63,12Z"/><path class="cls-1" d="M1400.2,788.26h0a.25.25,0,0,1,0,.5h0a11.33,11.33,0,0,0-10.14,10.14h0a.25.25,0,0,1-.5,0h0a11.32,11.32,0,0,0-10.14-10.14h0a.25.25,0,0,1,0-.5h0a11.3,11.3,0,0,0,10.14-10.14h0a.25.25,0,0,1,.5,0h0A11.32,11.32,0,0,0,1400.2,788.26Z"/><path class="cls-1" d="M1273.92,707.25h0a.28.28,0,0,1,0,.55h0a12.58,12.58,0,0,0-11.26,11.26h0a.28.28,0,0,1-.55,0h0a12.58,12.58,0,0,0-11.26-11.26h0a.28.28,0,0,1,0-.55h0A12.56,12.56,0,0,0,1262.11,696h0a.28.28,0,0,1,.55,0h0A12.56,12.56,0,0,0,1273.92,707.25Z"/><path class="cls-1" d="M1244.85,479h0a.32.32,0,0,1,0,.63h0a14.5,14.5,0,0,0-13,13h0a.32.32,0,0,1-.64,0h0a14.49,14.49,0,0,0-13-13h0a.32.32,0,0,1,0-.63h0a14.49,14.49,0,0,0,13-13h0a.32.32,0,0,1,.64,0h0A14.5,14.5,0,0,0,1244.85,479Z"/><path class="cls-1" d="M1097.27,479.63h0a.27.27,0,0,1,0,.54h0a12.4,12.4,0,0,0-11.1,11.1h0a.27.27,0,0,1-.54,0h0a12.4,12.4,0,0,0-11.1-11.1h0a.27.27,0,0,1,0-.54h0a12.4,12.4,0,0,0,11.1-11.1h0a.27.27,0,0,1,.54,0h0A12.4,12.4,0,0,0,1097.27,479.63Z"/><path class="cls-1" d="M1011.38,506.26h0a.25.25,0,0,1,0,.5h0a11.3,11.3,0,0,0-10.13,10.12h0a.25.25,0,0,1-.49,0h0a11.3,11.3,0,0,0-10.13-10.12h0a.25.25,0,0,1,0-.5h0a11.3,11.3,0,0,0,10.13-10.12h0a.25.25,0,0,1,.49,0h0A11.3,11.3,0,0,0,1011.38,506.26Z"/><circle class="cls-1" cx="1019.35" cy="292.79" r="7.49"/><circle class="cls-1" cx="1058.71" cy="721.87" r="9.4"/><circle class="cls-1" cx="996.22" cy="620.36" r="12.2"/><circle class="cls-1" cx="1010.83" cy="498.19" r="5.69"/><circle class="cls-1" cx="1108.45" cy="615.82" r="7.04"/><circle class="cls-1" cx="1319.97" cy="14.05" r="5.03"/><circle class="cls-1" cx="1144.11" cy="21.88" r="6.46"/><circle class="cls-1" cx="990.49" cy="151.68" r="5.55"/><circle class="cls-1" cx="1259.66" cy="856.72" r="7.23"/><circle class="cls-1" cx="1207.65" cy="673.92" r="8.63"/><circle class="cls-1" cx="1281.66" cy="710.49" r="6.19"/><circle class="cls-1" cx="1286.07" cy="248.59" r="7.22"/><circle class="cls-1" cx="1198.95" cy="57.72" r="8.44"/><circle class="cls-1" cx="1325.42" cy="540.98" r="6.04"/><path class="cls-1" d="M55.88,776.84h0a.28.28,0,0,1-.55,0h0A12.64,12.64,0,0,0,44,765.52h0a.28.28,0,0,1,0-.56h0a12.66,12.66,0,0,0,11.33-11.33h0a.28.28,0,0,1,.55,0h0A12.66,12.66,0,0,0,67.21,765h0a.28.28,0,0,1,0,.56h0A12.64,12.64,0,0,0,55.88,776.84Z"/><path class="cls-1" d="M119.52,757h0a.31.31,0,0,1-.62,0h0a14.09,14.09,0,0,0-12.62-12.62h0a.31.31,0,0,1,0-.62h0a14.1,14.1,0,0,0,12.62-12.62h0a.31.31,0,0,1,.62,0h0a14.09,14.09,0,0,0,12.62,12.62h0a.31.31,0,0,1,0,.62h0A14.08,14.08,0,0,0,119.52,757Z"/><path class="cls-1" d="M609.81,794.37h0a.3.3,0,0,1-.59,0h0a13.38,13.38,0,0,0-12-12h0a.3.3,0,0,1,0-.59h0a13.38,13.38,0,0,0,12-12h0a.3.3,0,0,1,.59,0h0a13.39,13.39,0,0,0,12,12h0a.3.3,0,0,1,0,.59h0A13.39,13.39,0,0,0,609.81,794.37Z"/><path class="cls-1" d="M769,763h0a.24.24,0,0,1-.47,0h0a10.82,10.82,0,0,0-9.7-9.69h0a.24.24,0,0,1,0-.48h0a10.83,10.83,0,0,0,9.7-9.69h0a.24.24,0,0,1,.47,0h0a10.82,10.82,0,0,0,9.69,9.69h0a.24.24,0,0,1,0,.48h0A10.81,10.81,0,0,0,769,763Z"/><path class="cls-1" d="M831.7,743.73h0a.15.15,0,0,1-.3,0h0a6.77,6.77,0,0,0-6.06-6.06h0a.15.15,0,0,1,0-.29h0a6.77,6.77,0,0,0,6.06-6.06h0a.15.15,0,0,1,.3,0h0a6.77,6.77,0,0,0,6.06,6.06h0a.15.15,0,0,1,0,.29h0A6.77,6.77,0,0,0,831.7,743.73Z"/><path class="cls-1" d="M933,800h0a.26.26,0,0,1-.51,0h0a11.74,11.74,0,0,0-10.5-10.5h0a.26.26,0,0,1,0-.51h0a11.74,11.74,0,0,0,10.5-10.5h0a.26.26,0,0,1,.51,0h0A11.73,11.73,0,0,0,943.45,789h0a.26.26,0,0,1,0,.51h0A11.73,11.73,0,0,0,933,800Z"/><path class="cls-1" d="M911.76,784.61h0a.27.27,0,0,1-.54,0h0a12.36,12.36,0,0,0-11.07-11.07h0a.27.27,0,0,1,0-.54h0a12.37,12.37,0,0,0,11.07-11.08h0a.27.27,0,0,1,.54,0h0A12.38,12.38,0,0,0,922.84,773h0a.27.27,0,0,1,0,.54h0A12.37,12.37,0,0,0,911.76,784.61Z"/><path class="cls-1" d="M416.75,879.83h0a.32.32,0,0,1-.64,0h0a14.48,14.48,0,0,0-13-13h0a.32.32,0,0,1,0-.64h0a14.47,14.47,0,0,0,13-13h0a.32.32,0,0,1,.64,0h0a14.48,14.48,0,0,0,13,13h0a.32.32,0,0,1,0,.64h0A14.49,14.49,0,0,0,416.75,879.83Z"/><path class="cls-1" d="M416.16,732.25h0a.27.27,0,0,1-.54,0h0a12.4,12.4,0,0,0-11.1-11.1h0a.27.27,0,0,1,0-.54h0a12.4,12.4,0,0,0,11.1-11.1h0a.27.27,0,0,1,.54,0h0a12.4,12.4,0,0,0,11.1,11.1h0a.27.27,0,0,1,0,.54h0A12.4,12.4,0,0,0,416.16,732.25Z"/><path class="cls-1" d="M389.53,646.35h0a.25.25,0,0,1-.5,0h0a11.3,11.3,0,0,0-10.12-10.12h0a.25.25,0,0,1,0-.49h0A11.3,11.3,0,0,0,389,625.61h0a.25.25,0,0,1,.5,0h0a11.3,11.3,0,0,0,10.12,10.13h0a.25.25,0,0,1,0,.49h0A11.3,11.3,0,0,0,389.53,646.35Z"/><circle class="cls-1" cx="603" cy="654.33" r="7.49"/><circle class="cls-1" cx="173.92" cy="693.69" r="9.4"/><circle class="cls-1" cx="275.42" cy="631.2" r="12.2"/><circle class="cls-1" cx="480.6" cy="615.81" r="5.69"/><circle class="cls-1" cx="279.97" cy="743.43" r="7.04"/><circle class="cls-1" cx="873.91" cy="779.09" r="6.46"/><circle class="cls-1" cx="744.11" cy="625.47" r="5.55"/><circle class="cls-1" cx="221.87" cy="842.63" r="8.63"/><circle class="cls-1" cx="959.71" cy="691.79" r="7.38"/><circle class="cls-1" cx="838.07" cy="833.93" r="8.44"/></g></g></svg>